<svg width="40" height="40" viewBox="0 0 40 40" fill="none" xmlns="http://www.w3.org/2000/svg">
<g filter="url(#filter0_iiii_1_170)">
<rect width="39.1111" height="39.1111" rx="19.5556" fill="#FF6600"/>
<path d="M19.5556 9.77599C17.7401 9.77599 15.9988 10.4972 14.715 11.781C13.4312 13.0649 12.71 14.8061 12.71 16.6217V20.0719C12.7101 20.2236 12.675 20.3732 12.6073 20.509L10.9281 23.8663C10.8461 24.0304 10.8074 24.2126 10.8156 24.3958C10.8239 24.579 10.8788 24.7571 10.9752 24.9131C11.0716 25.0691 11.2063 25.1978 11.3665 25.2871C11.5267 25.3764 11.7071 25.4233 11.8905 25.4232H27.2208C27.4042 25.4233 27.5846 25.3764 27.7448 25.2871C27.9049 25.1978 28.0396 25.0691 28.1361 24.9131C28.2325 24.7571 28.2874 24.579 28.2957 24.3958C28.3039 24.2126 28.2652 24.0304 28.1831 23.8663L26.505 20.509C26.437 20.3733 26.4015 20.2237 26.4013 20.0719V16.6217C26.4013 14.8061 25.6801 13.0649 24.3963 11.781C23.1124 10.4972 21.3712 9.77599 19.5556 9.77599ZM19.5556 28.3571C18.9487 28.3574 18.3565 28.1695 17.8609 27.8192C17.3652 27.4689 16.9904 26.9734 16.788 26.4012H22.3232C22.1209 26.9734 21.7461 27.4689 21.2504 27.8192C20.7547 28.1695 20.1626 28.3574 19.5556 28.3571Z" fill="black"/>
</g>
<defs>
<filter id="filter0_iiii_1_170" x="-1.95556" y="-1.95556" width="43.0222" height="43.0222" filterUnits="userSpaceOnUse" color-interpolation-filters="sRGB">
<feFlood flood-opacity="0" result="BackgroundImageFix"/>
<feBlend mode="normal" in="SourceGraphic" in2="BackgroundImageFix" result="shape"/>
<feColorMatrix in="SourceAlpha" type="matrix" values="0 0 0 0 0 0 0 0 0 0 0 0 0 0 0 0 0 0 127 0" result="hardAlpha"/>
<feOffset dy="1.95556"/>
<feGaussianBlur stdDeviation="1.95556"/>
<feComposite in2="hardAlpha" operator="arithmetic" k2="-1" k3="1"/>
<feColorMatrix type="matrix" values="0 0 0 0 0 0 0 0 0 0 0 0 0 0 0 0 0 0 0.25 0"/>
<feBlend mode="normal" in2="shape" result="effect1_innerShadow_1_170"/>
<feColorMatrix in="SourceAlpha" type="matrix" values="0 0 0 0 0 0 0 0 0 0 0 0 0 0 0 0 0 0 127 0" result="hardAlpha"/>
<feOffset dx="1.95556"/>
<feGaussianBlur stdDeviation="1.95556"/>
<feComposite in2="hardAlpha" operator="arithmetic" k2="-1" k3="1"/>
<feColorMatrix type="matrix" values="0 0 0 0 0 0 0 0 0 0 0 0 0 0 0 0 0 0 0.25 0"/>
<feBlend mode="normal" in2="effect1_innerShadow_1_170" result="effect2_innerShadow_1_170"/>
<feColorMatrix in="SourceAlpha" type="matrix" values="0 0 0 0 0 0 0 0 0 0 0 0 0 0 0 0 0 0 127 0" result="hardAlpha"/>
<feOffset dy="-1.95556"/>
<feGaussianBlur stdDeviation="1.95556"/>
<feComposite in2="hardAlpha" operator="arithmetic" k2="-1" k3="1"/>
<feColorMatrix type="matrix" values="0 0 0 0 0 0 0 0 0 0 0 0 0 0 0 0 0 0 0.25 0"/>
<feBlend mode="normal" in2="effect2_innerShadow_1_170" result="effect3_innerShadow_1_170"/>
<feColorMatrix in="SourceAlpha" type="matrix" values="0 0 0 0 0 0 0 0 0 0 0 0 0 0 0 0 0 0 127 0" result="hardAlpha"/>
<feOffset dx="-1.95556"/>
<feGaussianBlur stdDeviation="1.95556"/>
<feComposite in2="hardAlpha" operator="arithmetic" k2="-1" k3="1"/>
<feColorMatrix type="matrix" values="0 0 0 0 0 0 0 0 0 0 0 0 0 0 0 0 0 0 0.25 0"/>
<feBlend mode="normal" in2="effect3_innerShadow_1_170" result="effect4_innerShadow_1_170"/>
</filter>
</defs>
</svg>
